<?xml version="1.0" encoding="UTF-8" standalone="no"?>
<!DOCTYPE svg PUBLIC "-//W3C//DTD SVG 1.1//EN" "http://www.w3.org/Graphics/SVG/1.1/DTD/svg11.dtd">
<svg version="1.1" xmlns="http://www.w3.org/2000/svg" xmlns:xlink="http://www.w3.org/1999/xlink" preserveAspectRatio="xMidYMid meet" viewBox="0 0 640 640" width="100" height="100"><defs><path d="M0.12 241.46C-1.31 243.63 9.71 280.55 58.97 440.37C92.18 548.41 119.82 637.4 120.39 638.41C121.11 639.57 172.22 640 319.7 640C332.91 640 398.97 640 517.86 640C518.81 638.01 519.33 636.9 519.44 636.68C523.02 628.75 640.57 243.92 640 242.19C638.71 239.01 324 0.58 320.27 0.01C317.41 -0.43 286.48 22.51 159.19 119.15C72.57 185.07 0.98 240.17 0.12 241.46ZM626.68 250.26C625.39 254.16 512.57 621.1 511.28 625.86C510.56 628.32 500.11 628.46 319.41 628.46C214.32 628.46 128.41 628.17 128.41 627.74C128.41 627.31 102.35 542.06 70.42 438.35C38.49 334.79 12.29 249.11 12 247.95C11.72 246.22 316.41 12.84 319.27 12.7C319.84 12.55 389.57 65.2 474.19 129.39C625.82 244.78 627.97 246.37 626.68 250.26Z" id="aAE4CyvFH"></path></defs><g><g><g><use xlink:href="#aAE4CyvFH" opacity="1" fill="#000000" fill-opacity="1"></use><g><use xlink:href="#aAE4CyvFH" opacity="1" fill-opacity="0" stroke="#000000" stroke-width="1" stroke-opacity="0"></use></g></g></g></g></svg>